<mxfile host="app.diagrams.net" modified="2024-04-22T13:19:45.036Z" agent="Mozilla/5.0 (Windows NT 10.0; Win64; x64) AppleWebKit/537.36 (KHTML, like Gecko) Chrome/124.0.0.0 Safari/537.36" etag="yhAEUoK-z5ElHwN7Zn7N" version="24.2.5" type="device">
  <diagram name="Seite-1" id="IcDrGNgG1QqAmfGNEyO5">
    <mxGraphModel dx="989" dy="532" grid="1" gridSize="10" guides="1" tooltips="1" connect="1" arrows="1" fold="1" page="1" pageScale="1" pageWidth="827" pageHeight="1169" math="0" shadow="0">
      <root>
        <mxCell id="0" />
        <mxCell id="1" parent="0" />
        <mxCell id="rMu8eChGB8LK1C9Uu2LS-68" value="n" style="edgeLabel;html=1;align=center;verticalAlign=middle;resizable=0;points=[];" parent="1" vertex="1" connectable="0">
          <mxGeometry x="365.0032258064517" y="270" as="geometry">
            <mxPoint x="-24" y="18" as="offset" />
          </mxGeometry>
        </mxCell>
        <mxCell id="rMu8eChGB8LK1C9Uu2LS-67" value="m" style="edgeLabel;html=1;align=center;verticalAlign=middle;resizable=0;points=[];" parent="1" vertex="1" connectable="0">
          <mxGeometry x="607.9032258064517" y="270" as="geometry">
            <mxPoint x="-14" y="18" as="offset" />
          </mxGeometry>
        </mxCell>
        <mxCell id="rMu8eChGB8LK1C9Uu2LS-5" value="&lt;b&gt;Student&lt;/b&gt;" style="rounded=0;whiteSpace=wrap;html=1;" parent="1" vertex="1">
          <mxGeometry x="240" y="270" width="90" height="50" as="geometry" />
        </mxCell>
        <mxCell id="rMu8eChGB8LK1C9Uu2LS-6" value="&lt;b&gt;Module&lt;/b&gt;" style="rounded=0;whiteSpace=wrap;html=1;" parent="1" vertex="1">
          <mxGeometry x="600" y="270" width="90" height="50" as="geometry" />
        </mxCell>
        <mxCell id="rMu8eChGB8LK1C9Uu2LS-8" value="" style="endArrow=none;html=1;rounded=0;exitX=1;exitY=0.5;exitDx=0;exitDy=0;entryX=0;entryY=0.5;entryDx=0;entryDy=0;" parent="1" source="rMu8eChGB8LK1C9Uu2LS-11" target="rMu8eChGB8LK1C9Uu2LS-6" edge="1">
          <mxGeometry width="50" height="50" relative="1" as="geometry">
            <mxPoint x="530" y="295" as="sourcePoint" />
            <mxPoint x="680" y="490" as="targetPoint" />
          </mxGeometry>
        </mxCell>
        <mxCell id="rMu8eChGB8LK1C9Uu2LS-11" value="signUp" style="rhombus;whiteSpace=wrap;html=1;" parent="1" vertex="1">
          <mxGeometry x="450" y="270" width="50" height="50" as="geometry" />
        </mxCell>
        <mxCell id="rMu8eChGB8LK1C9Uu2LS-15" value="&lt;b&gt;Studiengang&lt;/b&gt;" style="rounded=0;whiteSpace=wrap;html=1;" parent="1" vertex="1">
          <mxGeometry x="240" y="490" width="90" height="50" as="geometry" />
        </mxCell>
        <mxCell id="rMu8eChGB8LK1C9Uu2LS-16" value="studiert" style="rhombus;whiteSpace=wrap;html=1;" parent="1" vertex="1">
          <mxGeometry x="260" y="380" width="50" height="50" as="geometry" />
        </mxCell>
        <mxCell id="rMu8eChGB8LK1C9Uu2LS-17" value="" style="endArrow=none;html=1;rounded=0;exitX=0.5;exitY=1;exitDx=0;exitDy=0;entryX=0.5;entryY=0;entryDx=0;entryDy=0;" parent="1" source="rMu8eChGB8LK1C9Uu2LS-5" target="rMu8eChGB8LK1C9Uu2LS-16" edge="1">
          <mxGeometry width="50" height="50" relative="1" as="geometry">
            <mxPoint x="240" y="350" as="sourcePoint" />
            <mxPoint x="310" y="350" as="targetPoint" />
          </mxGeometry>
        </mxCell>
        <mxCell id="rMu8eChGB8LK1C9Uu2LS-22" value="n" style="edgeLabel;html=1;align=center;verticalAlign=middle;resizable=0;points=[];" parent="rMu8eChGB8LK1C9Uu2LS-17" vertex="1" connectable="0">
          <mxGeometry x="-0.5046" y="2" relative="1" as="geometry">
            <mxPoint x="3" as="offset" />
          </mxGeometry>
        </mxCell>
        <mxCell id="rMu8eChGB8LK1C9Uu2LS-24" value="" style="endArrow=none;html=1;rounded=0;entryX=0.5;entryY=1;entryDx=0;entryDy=0;exitX=0.5;exitY=0;exitDx=0;exitDy=0;" parent="1" source="rMu8eChGB8LK1C9Uu2LS-15" target="rMu8eChGB8LK1C9Uu2LS-16" edge="1">
          <mxGeometry width="50" height="50" relative="1" as="geometry">
            <mxPoint x="550" y="540" as="sourcePoint" />
            <mxPoint x="600" y="490" as="targetPoint" />
          </mxGeometry>
        </mxCell>
        <mxCell id="rMu8eChGB8LK1C9Uu2LS-25" value="1" style="edgeLabel;html=1;align=center;verticalAlign=middle;resizable=0;points=[];" parent="rMu8eChGB8LK1C9Uu2LS-24" vertex="1" connectable="0">
          <mxGeometry x="-0.4034" y="-1" relative="1" as="geometry">
            <mxPoint x="4" y="8" as="offset" />
          </mxGeometry>
        </mxCell>
        <mxCell id="rMu8eChGB8LK1C9Uu2LS-27" value="enthÃ¤lt" style="rhombus;whiteSpace=wrap;html=1;" parent="1" vertex="1">
          <mxGeometry x="620" y="490" width="50" height="50" as="geometry" />
        </mxCell>
        <mxCell id="rMu8eChGB8LK1C9Uu2LS-30" value="" style="endArrow=none;html=1;rounded=0;exitX=0.5;exitY=0;exitDx=0;exitDy=0;entryX=0.5;entryY=1;entryDx=0;entryDy=0;" parent="1" source="rMu8eChGB8LK1C9Uu2LS-27" target="rMu8eChGB8LK1C9Uu2LS-6" edge="1">
          <mxGeometry width="50" height="50" relative="1" as="geometry">
            <mxPoint x="433" y="428" as="sourcePoint" />
            <mxPoint x="340" y="500" as="targetPoint" />
          </mxGeometry>
        </mxCell>
        <mxCell id="rMu8eChGB8LK1C9Uu2LS-34" value="&lt;font style=&quot;font-size: 10px;&quot;&gt;&lt;u&gt;&lt;b&gt;matriklNr&lt;/b&gt;&lt;/u&gt;&lt;/font&gt;" style="ellipse;whiteSpace=wrap;html=1;" parent="1" vertex="1">
          <mxGeometry x="310" y="200" width="50" height="30" as="geometry" />
        </mxCell>
        <mxCell id="rMu8eChGB8LK1C9Uu2LS-35" value="" style="endArrow=none;html=1;rounded=0;entryX=0.5;entryY=1;entryDx=0;entryDy=0;exitX=0.5;exitY=0;exitDx=0;exitDy=0;" parent="1" source="rMu8eChGB8LK1C9Uu2LS-5" target="rMu8eChGB8LK1C9Uu2LS-34" edge="1">
          <mxGeometry width="50" height="50" relative="1" as="geometry">
            <mxPoint x="550" y="340" as="sourcePoint" />
            <mxPoint x="600" y="290" as="targetPoint" />
          </mxGeometry>
        </mxCell>
        <mxCell id="rMu8eChGB8LK1C9Uu2LS-36" value="&lt;font style=&quot;font-size: 10px;&quot;&gt;name&lt;/font&gt;" style="ellipse;whiteSpace=wrap;html=1;" parent="1" vertex="1">
          <mxGeometry x="260" y="190" width="50" height="30" as="geometry" />
        </mxCell>
        <mxCell id="rMu8eChGB8LK1C9Uu2LS-37" value="" style="endArrow=none;html=1;rounded=0;entryX=0.5;entryY=1;entryDx=0;entryDy=0;exitX=0.5;exitY=0;exitDx=0;exitDy=0;" parent="1" source="rMu8eChGB8LK1C9Uu2LS-5" target="rMu8eChGB8LK1C9Uu2LS-36" edge="1">
          <mxGeometry width="50" height="50" relative="1" as="geometry">
            <mxPoint x="295" y="280" as="sourcePoint" />
            <mxPoint x="275" y="220" as="targetPoint" />
          </mxGeometry>
        </mxCell>
        <mxCell id="rMu8eChGB8LK1C9Uu2LS-38" value="&lt;font style=&quot;font-size: 10px;&quot;&gt;firstName&lt;/font&gt;" style="ellipse;whiteSpace=wrap;html=1;" parent="1" vertex="1">
          <mxGeometry x="210" y="200" width="50" height="30" as="geometry" />
        </mxCell>
        <mxCell id="rMu8eChGB8LK1C9Uu2LS-39" value="" style="endArrow=none;html=1;rounded=0;entryX=0.5;entryY=1;entryDx=0;entryDy=0;exitX=0.5;exitY=0;exitDx=0;exitDy=0;" parent="1" source="rMu8eChGB8LK1C9Uu2LS-5" target="rMu8eChGB8LK1C9Uu2LS-38" edge="1">
          <mxGeometry width="50" height="50" relative="1" as="geometry">
            <mxPoint x="262.5" y="300" as="sourcePoint" />
            <mxPoint x="252.5" y="250" as="targetPoint" />
          </mxGeometry>
        </mxCell>
        <mxCell id="rMu8eChGB8LK1C9Uu2LS-40" value="&lt;font style=&quot;font-size: 10px;&quot;&gt;dob&lt;/font&gt;" style="ellipse;whiteSpace=wrap;html=1;" parent="1" vertex="1">
          <mxGeometry x="170" y="220" width="50" height="30" as="geometry" />
        </mxCell>
        <mxCell id="rMu8eChGB8LK1C9Uu2LS-41" value="" style="endArrow=none;html=1;rounded=0;entryX=0.5;entryY=1;entryDx=0;entryDy=0;exitX=0.5;exitY=0;exitDx=0;exitDy=0;" parent="1" source="rMu8eChGB8LK1C9Uu2LS-5" target="rMu8eChGB8LK1C9Uu2LS-40" edge="1">
          <mxGeometry width="50" height="50" relative="1" as="geometry">
            <mxPoint x="255" y="350" as="sourcePoint" />
            <mxPoint x="245" y="300" as="targetPoint" />
          </mxGeometry>
        </mxCell>
        <mxCell id="rMu8eChGB8LK1C9Uu2LS-42" value="&lt;span style=&quot;font-size: 10px;&quot;&gt;&lt;u&gt;&lt;b&gt;course_Id&lt;/b&gt;&lt;/u&gt;&lt;/span&gt;" style="ellipse;whiteSpace=wrap;html=1;" parent="1" vertex="1">
          <mxGeometry x="315" y="580" width="65" height="30" as="geometry" />
        </mxCell>
        <mxCell id="rMu8eChGB8LK1C9Uu2LS-43" value="" style="endArrow=none;html=1;rounded=0;entryX=0.5;entryY=0;entryDx=0;entryDy=0;" parent="1" target="rMu8eChGB8LK1C9Uu2LS-42" edge="1">
          <mxGeometry width="50" height="50" relative="1" as="geometry">
            <mxPoint x="285" y="540" as="sourcePoint" />
            <mxPoint x="600" y="710" as="targetPoint" />
          </mxGeometry>
        </mxCell>
        <mxCell id="rMu8eChGB8LK1C9Uu2LS-44" value="&lt;span style=&quot;font-size: 10px;&quot;&gt;description&lt;/span&gt;" style="ellipse;whiteSpace=wrap;html=1;" parent="1" vertex="1">
          <mxGeometry x="255" y="590" width="60" height="30" as="geometry" />
        </mxCell>
        <mxCell id="rMu8eChGB8LK1C9Uu2LS-45" value="" style="endArrow=none;html=1;rounded=0;entryX=0.5;entryY=0;entryDx=0;entryDy=0;exitX=0.5;exitY=1;exitDx=0;exitDy=0;" parent="1" source="rMu8eChGB8LK1C9Uu2LS-15" target="rMu8eChGB8LK1C9Uu2LS-44" edge="1">
          <mxGeometry width="50" height="50" relative="1" as="geometry">
            <mxPoint x="285" y="540" as="sourcePoint" />
            <mxPoint x="290" y="620" as="targetPoint" />
          </mxGeometry>
        </mxCell>
        <mxCell id="rMu8eChGB8LK1C9Uu2LS-47" value="" style="endArrow=none;html=1;rounded=0;entryX=0.5;entryY=0;entryDx=0;entryDy=0;" parent="1" target="rMu8eChGB8LK1C9Uu2LS-46" edge="1">
          <mxGeometry width="50" height="50" relative="1" as="geometry">
            <mxPoint x="285" y="540" as="sourcePoint" />
            <mxPoint x="270" y="660" as="targetPoint" />
          </mxGeometry>
        </mxCell>
        <mxCell id="rMu8eChGB8LK1C9Uu2LS-48" value="&lt;font style=&quot;font-size: 10px;&quot;&gt;moduleList&lt;/font&gt;" style="ellipse;whiteSpace=wrap;html=1;" parent="1" vertex="1">
          <mxGeometry x="160" y="555" width="60" height="30" as="geometry" />
        </mxCell>
        <mxCell id="rMu8eChGB8LK1C9Uu2LS-49" value="" style="endArrow=none;html=1;rounded=0;entryX=0.5;entryY=0;entryDx=0;entryDy=0;exitX=0.5;exitY=1;exitDx=0;exitDy=0;" parent="1" source="rMu8eChGB8LK1C9Uu2LS-15" target="rMu8eChGB8LK1C9Uu2LS-48" edge="1">
          <mxGeometry width="50" height="50" relative="1" as="geometry">
            <mxPoint x="285" y="690" as="sourcePoint" />
            <mxPoint x="245" y="720" as="targetPoint" />
          </mxGeometry>
        </mxCell>
        <mxCell id="rMu8eChGB8LK1C9Uu2LS-51" value="" style="endArrow=none;html=1;rounded=0;entryX=0.5;entryY=0;entryDx=0;entryDy=0;" parent="1" target="rMu8eChGB8LK1C9Uu2LS-46" edge="1">
          <mxGeometry width="50" height="50" relative="1" as="geometry">
            <mxPoint x="285" y="540" as="sourcePoint" />
            <mxPoint x="285" y="610" as="targetPoint" />
          </mxGeometry>
        </mxCell>
        <mxCell id="rMu8eChGB8LK1C9Uu2LS-46" value="&lt;font style=&quot;font-size: 10px;&quot;&gt;degree&lt;/font&gt;" style="ellipse;whiteSpace=wrap;html=1;" parent="1" vertex="1">
          <mxGeometry x="205" y="580" width="50" height="30" as="geometry" />
        </mxCell>
        <mxCell id="rMu8eChGB8LK1C9Uu2LS-54" value="&lt;span style=&quot;font-size: 10px;&quot;&gt;requirements&lt;/span&gt;" style="ellipse;whiteSpace=wrap;html=1;" parent="1" vertex="1">
          <mxGeometry x="725" y="220" width="70" height="30" as="geometry" />
        </mxCell>
        <mxCell id="rMu8eChGB8LK1C9Uu2LS-55" value="" style="endArrow=none;html=1;rounded=0;entryX=0.5;entryY=1;entryDx=0;entryDy=0;exitX=0.5;exitY=0;exitDx=0;exitDy=0;" parent="1" source="rMu8eChGB8LK1C9Uu2LS-6" target="rMu8eChGB8LK1C9Uu2LS-54" edge="1">
          <mxGeometry width="50" height="50" relative="1" as="geometry">
            <mxPoint x="660" y="255" as="sourcePoint" />
            <mxPoint x="975" y="275" as="targetPoint" />
          </mxGeometry>
        </mxCell>
        <mxCell id="rMu8eChGB8LK1C9Uu2LS-56" value="&lt;span style=&quot;font-size: 10px;&quot;&gt;cP&lt;/span&gt;" style="ellipse;whiteSpace=wrap;html=1;" parent="1" vertex="1">
          <mxGeometry x="680" y="200" width="50" height="30" as="geometry" />
        </mxCell>
        <mxCell id="rMu8eChGB8LK1C9Uu2LS-57" value="" style="endArrow=none;html=1;rounded=0;entryX=0.5;entryY=1;entryDx=0;entryDy=0;exitX=0.5;exitY=0;exitDx=0;exitDy=0;" parent="1" source="rMu8eChGB8LK1C9Uu2LS-6" target="rMu8eChGB8LK1C9Uu2LS-56" edge="1">
          <mxGeometry width="50" height="50" relative="1" as="geometry">
            <mxPoint x="660" y="255" as="sourcePoint" />
            <mxPoint x="650" y="205" as="targetPoint" />
          </mxGeometry>
        </mxCell>
        <mxCell id="rMu8eChGB8LK1C9Uu2LS-58" value="&lt;font style=&quot;font-size: 10px;&quot;&gt;description&lt;/font&gt;" style="ellipse;whiteSpace=wrap;html=1;" parent="1" vertex="1">
          <mxGeometry x="620" y="190" width="60" height="30" as="geometry" />
        </mxCell>
        <mxCell id="rMu8eChGB8LK1C9Uu2LS-59" value="" style="endArrow=none;html=1;rounded=0;entryX=0.5;entryY=1;entryDx=0;entryDy=0;exitX=0.5;exitY=0;exitDx=0;exitDy=0;" parent="1" source="rMu8eChGB8LK1C9Uu2LS-6" target="rMu8eChGB8LK1C9Uu2LS-58" edge="1">
          <mxGeometry width="50" height="50" relative="1" as="geometry">
            <mxPoint x="660" y="255" as="sourcePoint" />
            <mxPoint x="627.5" y="235" as="targetPoint" />
          </mxGeometry>
        </mxCell>
        <mxCell id="rMu8eChGB8LK1C9Uu2LS-60" value="&lt;font style=&quot;font-size: 10px;&quot;&gt;&lt;u&gt;&lt;b&gt;course_Id&lt;/b&gt;&lt;/u&gt;&lt;/font&gt;" style="ellipse;whiteSpace=wrap;html=1;" parent="1" vertex="1">
          <mxGeometry x="570" y="200" width="50" height="30" as="geometry" />
        </mxCell>
        <mxCell id="rMu8eChGB8LK1C9Uu2LS-61" value="" style="endArrow=none;html=1;rounded=0;entryX=0.5;entryY=1;entryDx=0;entryDy=0;exitX=0.5;exitY=0;exitDx=0;exitDy=0;" parent="1" source="rMu8eChGB8LK1C9Uu2LS-6" target="rMu8eChGB8LK1C9Uu2LS-60" edge="1">
          <mxGeometry width="50" height="50" relative="1" as="geometry">
            <mxPoint x="660" y="255" as="sourcePoint" />
            <mxPoint x="620" y="285" as="targetPoint" />
          </mxGeometry>
        </mxCell>
        <mxCell id="rMu8eChGB8LK1C9Uu2LS-12" value="" style="endArrow=none;html=1;rounded=0;exitX=1;exitY=0.5;exitDx=0;exitDy=0;entryX=0;entryY=0.5;entryDx=0;entryDy=0;" parent="1" source="rMu8eChGB8LK1C9Uu2LS-5" target="rMu8eChGB8LK1C9Uu2LS-11" edge="1">
          <mxGeometry width="50" height="50" relative="1" as="geometry">
            <mxPoint x="330" y="295" as="sourcePoint" />
            <mxPoint x="520" y="295" as="targetPoint" />
          </mxGeometry>
        </mxCell>
        <mxCell id="rMu8eChGB8LK1C9Uu2LS-66" value="m" style="edgeLabel;html=1;align=center;verticalAlign=middle;resizable=0;points=[];" parent="1" vertex="1" connectable="0">
          <mxGeometry x="675.0032258064517" y="310" as="geometry">
            <mxPoint x="-14" y="18" as="offset" />
          </mxGeometry>
        </mxCell>
        <mxCell id="rMu8eChGB8LK1C9Uu2LS-69" value="&lt;font style=&quot;font-size: 10px;&quot;&gt;&lt;u&gt;#course_Id&lt;/u&gt;&lt;/font&gt;" style="ellipse;whiteSpace=wrap;html=1;" parent="1" vertex="1">
          <mxGeometry x="360" y="210" width="90" height="30" as="geometry" />
        </mxCell>
        <mxCell id="rMu8eChGB8LK1C9Uu2LS-70" value="" style="endArrow=none;html=1;rounded=0;entryX=0.5;entryY=1;entryDx=0;entryDy=0;exitX=0.5;exitY=0;exitDx=0;exitDy=0;" parent="1" source="rMu8eChGB8LK1C9Uu2LS-5" target="rMu8eChGB8LK1C9Uu2LS-69" edge="1">
          <mxGeometry width="50" height="50" relative="1" as="geometry">
            <mxPoint x="295" y="280" as="sourcePoint" />
            <mxPoint x="345" y="240" as="targetPoint" />
          </mxGeometry>
        </mxCell>
        <mxCell id="rMu8eChGB8LK1C9Uu2LS-71" value="" style="endArrow=none;html=1;rounded=0;exitX=1;exitY=0.5;exitDx=0;exitDy=0;entryX=0;entryY=0.5;entryDx=0;entryDy=0;" parent="1" source="rMu8eChGB8LK1C9Uu2LS-15" target="rMu8eChGB8LK1C9Uu2LS-27" edge="1">
          <mxGeometry width="50" height="50" relative="1" as="geometry">
            <mxPoint x="340" y="490" as="sourcePoint" />
            <mxPoint x="450" y="490" as="targetPoint" />
          </mxGeometry>
        </mxCell>
        <mxCell id="rMu8eChGB8LK1C9Uu2LS-72" value="&lt;font style=&quot;font-size: 10px;&quot;&gt;&lt;u&gt;#matriklNr&lt;/u&gt;&lt;/font&gt;" style="ellipse;whiteSpace=wrap;html=1;" parent="1" vertex="1">
          <mxGeometry x="400" y="320" width="50" height="30" as="geometry" />
        </mxCell>
        <mxCell id="rMu8eChGB8LK1C9Uu2LS-73" value="&lt;font style=&quot;font-size: 10px;&quot;&gt;&lt;u&gt;#moduleID&lt;/u&gt;&lt;/font&gt;" style="ellipse;whiteSpace=wrap;html=1;" parent="1" vertex="1">
          <mxGeometry x="500" y="320" width="50" height="30" as="geometry" />
        </mxCell>
        <mxCell id="rMu8eChGB8LK1C9Uu2LS-74" value="" style="endArrow=none;html=1;rounded=0;exitX=1;exitY=0;exitDx=0;exitDy=0;entryX=0;entryY=1;entryDx=0;entryDy=0;" parent="1" source="rMu8eChGB8LK1C9Uu2LS-72" target="rMu8eChGB8LK1C9Uu2LS-11" edge="1">
          <mxGeometry width="50" height="50" relative="1" as="geometry">
            <mxPoint x="340" y="305" as="sourcePoint" />
            <mxPoint x="460" y="305" as="targetPoint" />
          </mxGeometry>
        </mxCell>
        <mxCell id="rMu8eChGB8LK1C9Uu2LS-75" value="" style="endArrow=none;html=1;rounded=0;exitX=0;exitY=0;exitDx=0;exitDy=0;entryX=1;entryY=1;entryDx=0;entryDy=0;" parent="1" source="rMu8eChGB8LK1C9Uu2LS-73" target="rMu8eChGB8LK1C9Uu2LS-11" edge="1">
          <mxGeometry width="50" height="50" relative="1" as="geometry">
            <mxPoint x="453" y="334" as="sourcePoint" />
            <mxPoint x="473" y="318" as="targetPoint" />
          </mxGeometry>
        </mxCell>
        <mxCell id="rMu8eChGB8LK1C9Uu2LS-78" value="&lt;font style=&quot;font-size: 10px;&quot;&gt;&lt;u&gt;#moduleID&lt;/u&gt;&lt;/font&gt;" style="ellipse;whiteSpace=wrap;html=1;" parent="1" vertex="1">
          <mxGeometry x="660" y="540" width="50" height="30" as="geometry" />
        </mxCell>
        <mxCell id="rMu8eChGB8LK1C9Uu2LS-79" value="&lt;font style=&quot;font-size: 10px;&quot;&gt;&lt;u&gt;#studiengangsID&lt;/u&gt;&lt;/font&gt;" style="ellipse;whiteSpace=wrap;html=1;" parent="1" vertex="1">
          <mxGeometry x="545" y="540" width="90" height="30" as="geometry" />
        </mxCell>
        <mxCell id="rMu8eChGB8LK1C9Uu2LS-80" value="" style="endArrow=none;html=1;rounded=0;exitX=1;exitY=0;exitDx=0;exitDy=0;entryX=0;entryY=1;entryDx=0;entryDy=0;" parent="1" source="rMu8eChGB8LK1C9Uu2LS-79" target="rMu8eChGB8LK1C9Uu2LS-27" edge="1">
          <mxGeometry width="50" height="50" relative="1" as="geometry">
            <mxPoint x="340" y="540" as="sourcePoint" />
            <mxPoint x="630" y="540" as="targetPoint" />
          </mxGeometry>
        </mxCell>
        <mxCell id="rMu8eChGB8LK1C9Uu2LS-81" value="" style="endArrow=none;html=1;rounded=0;exitX=0;exitY=0;exitDx=0;exitDy=0;entryX=1;entryY=1;entryDx=0;entryDy=0;" parent="1" source="rMu8eChGB8LK1C9Uu2LS-78" target="rMu8eChGB8LK1C9Uu2LS-27" edge="1">
          <mxGeometry width="50" height="50" relative="1" as="geometry">
            <mxPoint x="627" y="554" as="sourcePoint" />
            <mxPoint x="643" y="537" as="targetPoint" />
          </mxGeometry>
        </mxCell>
        <mxCell id="rMu8eChGB8LK1C9Uu2LS-82" value="" style="endArrow=none;html=1;rounded=0;exitX=1;exitY=0.5;exitDx=0;exitDy=0;entryX=0.114;entryY=0.387;entryDx=0;entryDy=0;entryPerimeter=0;" parent="1" target="rMu8eChGB8LK1C9Uu2LS-27" edge="1">
          <mxGeometry width="50" height="50" relative="1" as="geometry">
            <mxPoint x="330" y="510" as="sourcePoint" />
            <mxPoint x="620" y="510" as="targetPoint" />
          </mxGeometry>
        </mxCell>
        <mxCell id="rMu8eChGB8LK1C9Uu2LS-83" value="n" style="edgeLabel;html=1;align=center;verticalAlign=middle;resizable=0;points=[];" parent="1" vertex="1" connectable="0">
          <mxGeometry x="340" y="499.9960747663552" as="geometry" />
        </mxCell>
        <mxCell id="rMu8eChGB8LK1C9Uu2LS-84" value="" style="endArrow=none;html=1;rounded=0;exitX=0.5;exitY=1;exitDx=0;exitDy=0;entryX=0.395;entryY=0.098;entryDx=0;entryDy=0;entryPerimeter=0;" parent="1" target="rMu8eChGB8LK1C9Uu2LS-16" edge="1">
          <mxGeometry width="50" height="50" relative="1" as="geometry">
            <mxPoint x="280" y="320" as="sourcePoint" />
            <mxPoint x="280" y="380" as="targetPoint" />
          </mxGeometry>
        </mxCell>
        <mxCell id="DFJDuCLefwimtRMR1Hrq-1" value="&lt;span style=&quot;font-size: 10px;&quot;&gt;grade&lt;/span&gt;" style="ellipse;whiteSpace=wrap;html=1;" parent="1" vertex="1">
          <mxGeometry x="410" y="350" width="50" height="30" as="geometry" />
        </mxCell>
        <mxCell id="DFJDuCLefwimtRMR1Hrq-3" value="&lt;span style=&quot;font-size: 10px;&quot;&gt;status&lt;/span&gt;&lt;div&gt;&lt;span style=&quot;font-size: 10px;&quot;&gt;(passed)&lt;/span&gt;&lt;/div&gt;" style="ellipse;whiteSpace=wrap;html=1;" parent="1" vertex="1">
          <mxGeometry x="440" y="370" width="70" height="40" as="geometry" />
        </mxCell>
        <mxCell id="DFJDuCLefwimtRMR1Hrq-4" value="&lt;span style=&quot;font-size: 10px;&quot;&gt;attempt&lt;/span&gt;" style="ellipse;whiteSpace=wrap;html=1;" parent="1" vertex="1">
          <mxGeometry x="490" y="350" width="50" height="30" as="geometry" />
        </mxCell>
        <mxCell id="DFJDuCLefwimtRMR1Hrq-5" value="&lt;span style=&quot;font-size: 10px;&quot;&gt;prÃ¼fungsdaten&lt;/span&gt;" style="ellipse;whiteSpace=wrap;html=1;" parent="1" vertex="1">
          <mxGeometry x="435" width="80" height="30" as="geometry" />
        </mxCell>
        <mxCell id="DFJDuCLefwimtRMR1Hrq-8" value="" style="endArrow=none;html=1;rounded=0;exitX=0.5;exitY=0;exitDx=0;exitDy=0;entryX=0.5;entryY=1;entryDx=0;entryDy=0;" parent="1" source="DFJDuCLefwimtRMR1Hrq-3" target="rMu8eChGB8LK1C9Uu2LS-11" edge="1">
          <mxGeometry width="50" height="50" relative="1" as="geometry">
            <mxPoint x="453" y="334" as="sourcePoint" />
            <mxPoint x="473" y="318" as="targetPoint" />
          </mxGeometry>
        </mxCell>
        <mxCell id="DFJDuCLefwimtRMR1Hrq-10" value="" style="endArrow=none;html=1;rounded=0;exitX=0;exitY=0;exitDx=0;exitDy=0;entryX=0.5;entryY=1;entryDx=0;entryDy=0;" parent="1" source="DFJDuCLefwimtRMR1Hrq-4" target="rMu8eChGB8LK1C9Uu2LS-11" edge="1">
          <mxGeometry width="50" height="50" relative="1" as="geometry">
            <mxPoint x="485" y="380" as="sourcePoint" />
            <mxPoint x="485" y="330" as="targetPoint" />
          </mxGeometry>
        </mxCell>
        <mxCell id="DFJDuCLefwimtRMR1Hrq-11" value="" style="endArrow=none;html=1;rounded=0;exitX=1;exitY=0;exitDx=0;exitDy=0;entryX=0.5;entryY=1;entryDx=0;entryDy=0;" parent="1" source="DFJDuCLefwimtRMR1Hrq-1" target="rMu8eChGB8LK1C9Uu2LS-11" edge="1">
          <mxGeometry width="50" height="50" relative="1" as="geometry">
            <mxPoint x="507" y="364" as="sourcePoint" />
            <mxPoint x="485" y="330" as="targetPoint" />
          </mxGeometry>
        </mxCell>
        <mxCell id="DFJDuCLefwimtRMR1Hrq-12" value="&lt;b&gt;&lt;font style=&quot;font-size: 10px;&quot;&gt;&lt;u&gt;matriklNr,&amp;nbsp;&lt;/u&gt;&lt;/font&gt;&lt;u style=&quot;font-size: 10px; background-color: initial;&quot;&gt;moduleID&lt;/u&gt;&lt;/b&gt;" style="ellipse;whiteSpace=wrap;html=1;" parent="1" vertex="1">
          <mxGeometry x="460" y="210" width="100" height="30" as="geometry" />
        </mxCell>
        <mxCell id="DFJDuCLefwimtRMR1Hrq-13" value="" style="endArrow=none;html=1;rounded=0;exitX=0.5;exitY=1;exitDx=0;exitDy=0;entryX=0.5;entryY=0;entryDx=0;entryDy=0;" parent="1" source="DFJDuCLefwimtRMR1Hrq-12" target="rMu8eChGB8LK1C9Uu2LS-11" edge="1">
          <mxGeometry width="50" height="50" relative="1" as="geometry">
            <mxPoint x="418" y="224" as="sourcePoint" />
            <mxPoint x="458" y="248" as="targetPoint" />
          </mxGeometry>
        </mxCell>
        <mxCell id="DFJDuCLefwimtRMR1Hrq-16" value="1" style="edgeLabel;html=1;align=center;verticalAlign=middle;resizable=0;points=[];" parent="1" vertex="1" connectable="0">
          <mxGeometry x="390" y="294.9989655172413" as="geometry">
            <mxPoint x="56" y="-12" as="offset" />
          </mxGeometry>
        </mxCell>
        <mxCell id="DFJDuCLefwimtRMR1Hrq-18" value="1" style="edgeLabel;html=1;align=center;verticalAlign=middle;resizable=0;points=[];" parent="1" vertex="1" connectable="0">
          <mxGeometry x="365" y="309.9989655172413" as="geometry">
            <mxPoint x="136" y="-29" as="offset" />
          </mxGeometry>
        </mxCell>
      </root>
    </mxGraphModel>
  </diagram>
</mxfile>
